<svg width="20" height="20" viewBox="0 0 20 20" fill="none" xmlns="http://www.w3.org/2000/svg">
<path d="M15.8333 3.33331H4.16663C3.50358 3.33331 2.8677 3.59671 2.39886 4.06555C1.93002 4.53439 1.66663 5.17027 1.66663 5.83331V14.1666C1.66663 14.8297 1.93002 15.4656 2.39886 15.9344C2.8677 16.4033 3.50358 16.6666 4.16663 16.6666H15.8333C16.4963 16.6666 17.1322 16.4033 17.6011 15.9344C18.0699 15.4656 18.3333 14.8297 18.3333 14.1666V5.83331C18.3333 5.17027 18.0699 4.53439 17.6011 4.06555C17.1322 3.59671 16.4963 3.33331 15.8333 3.33331ZM15.275 4.99998L9.99996 8.95831L4.72496 4.99998H15.275ZM15.8333 15H4.16663C3.94561 15 3.73365 14.9122 3.57737 14.7559C3.42109 14.5996 3.33329 14.3877 3.33329 14.1666V6.04165L9.49996 10.6666C9.64421 10.7748 9.81965 10.8333 9.99996 10.8333C10.1803 10.8333 10.3557 10.7748 10.5 10.6666L16.6666 6.04165V14.1666C16.6666 14.3877 16.5788 14.5996 16.4225 14.7559C16.2663 14.9122 16.0543 15 15.8333 15Z" fill="#FFF7F7"/>
</svg>
