<svg width="120" height="44" viewBox="0 0 120 44" fill="none" xmlns="http://www.w3.org/2000/svg">
<path d="M12.219 0.366432C12.2798 0.245833 12.3592 0.135553 12.4542 0.0396349C12.5909 0.00914322 12.731 -0.00348942 12.8709 0.00205323C13.3611 0.0118571 13.8513 0.00205323 14.3415 0.00205323H35.9477C36.2745 0.00205323 36.6013 0.00205323 36.9281 0.00205323C37.0677 -0.00482723 37.2077 0.00560061 37.3448 0.033099C37.4971 0.203846 37.6227 0.396661 37.7173 0.604994C38.4984 1.95794 39.2805 3.31088 40.0637 4.66382C40.2157 4.88903 40.3438 5.12943 40.4461 5.38114C40.2724 5.51336 40.0876 5.63035 39.8938 5.73081C39.7191 5.84308 39.5361 5.94195 39.3464 6.02656C39.2294 5.86698 39.1255 5.69812 39.0359 5.52166C38.2729 4.18833 37.4951 2.8648 36.7386 1.5282C36.6863 1.45303 36.6405 1.35009 36.5376 1.33865C36.266 1.31328 35.9929 1.30782 35.7206 1.32231H14.6765C14.329 1.32231 13.982 1.32231 13.6356 1.32231C13.4964 1.31518 13.3569 1.32616 13.2206 1.35499C13.1248 1.45032 13.0453 1.56072 12.9853 1.68179C12.7745 2.06741 12.549 2.4465 12.3317 2.82558C9.17266 8.28963 6.01688 13.7553 2.86438 19.2226C2.45752 19.9122 2.07516 20.6148 1.6585 21.2994C1.60189 21.3871 1.55788 21.4822 1.52778 21.5821C1.55306 21.7114 1.60541 21.8339 1.68137 21.9416C1.92484 22.3403 2.15196 22.7471 2.38562 23.1507C5.84749 29.142 9.30991 35.1393 12.7729 41.1426C12.9216 41.3795 13.0196 41.654 13.2222 41.8534C13.5051 41.8882 13.7906 41.897 14.0752 41.8795H35.7271C36.0127 41.897 36.2993 41.8882 36.5833 41.8534C36.7279 41.6949 36.8465 41.5146 36.9346 41.319C37.6013 40.1644 38.268 39.0091 38.9346 37.8534C39.035 37.6517 39.1537 37.4598 39.2892 37.2798C39.4724 37.3541 39.6485 37.4449 39.8154 37.5511C40.0211 37.6537 40.2146 37.7793 40.3922 37.9252C40.2937 38.1523 40.1768 38.3709 40.0425 38.5788C39.2799 39.898 38.5174 41.215 37.7549 42.5298C37.6225 42.7455 37.5359 43.002 37.3431 43.1736C37.2059 43.2003 37.0661 43.2107 36.9265 43.2047C36.415 43.1949 35.9036 43.2047 35.3938 43.2047H14.402C13.8922 43.2047 13.3807 43.2047 12.8709 43.2047C12.7312 43.211 12.5913 43.2 12.4542 43.172C12.2991 42.9845 12.1685 42.778 12.0654 42.5576C8.25272 35.9617 4.4439 29.3642 0.638889 22.7651C0.47549 22.4775 0.312091 22.1883 0.132353 21.904C0.0663242 21.8077 0.0212357 21.6986 0 21.5837C0.0310191 21.485 0.0755591 21.3909 0.132353 21.3043C0.45915 20.77 0.756536 20.2145 1.07843 19.6703C4.55229 13.654 8.02778 7.63658 11.5049 1.61807C11.7402 1.19813 11.9918 0.789635 12.219 0.366432Z" fill="#FFF7F7"/>
<path fill-rule="evenodd" clip-rule="evenodd" d="M14.827 11.3176C14.6377 11.5197 14.4002 11.9027 14.2994 12.1687C14.0203 12.905 13.9086 15.6428 14.1131 16.7295C14.2913 17.6761 14.285 17.7065 13.639 19.0171C13.279 19.7477 12.8854 20.8253 12.7641 21.4119C12.643 21.9985 12.3066 22.8991 12.0164 23.4133C10.6097 25.9057 11.6419 28.9624 14.3174 30.2277C14.8267 30.4686 15.6372 31.0125 16.1184 31.4364C17.9952 33.0892 20.42 33.9125 23.0383 33.786C25.528 33.666 27.4909 32.8681 29.3729 31.2114C30.8208 29.937 32.2336 27.3532 32.5174 25.4611C32.629 24.7166 32.6594 24.6839 33.9123 23.9558C35.4086 23.0865 37.1777 21.4919 37.7731 20.4758C38.2952 19.5851 38.8073 17.9678 38.8073 17.2101C38.8073 16.2496 38.3527 15.5225 37.5226 15.1553C36.0207 14.491 32.8032 15.0869 30.8963 16.3828L30.2587 16.816L29.4537 16.0923C28.3834 15.13 27.0337 14.3277 25.7354 13.8821C24.3702 13.4137 21.6339 13.2738 20.3937 13.6089L19.5453 13.8383L18.5963 12.8658C18.0743 12.331 17.3604 11.681 17.0099 11.4217C16.2046 10.8256 15.327 10.7838 14.827 11.3176ZM14.9314 12.7065C14.7414 13.1944 14.9336 15.07 15.2582 15.8967L15.4362 16.3499L16.3615 15.5962C16.8705 15.1816 17.4599 14.7637 17.6713 14.6674C17.8828 14.571 18.0556 14.4323 18.0556 14.3589C18.0556 14.124 15.6973 12.2622 15.3963 12.2596C15.23 12.2581 15.0318 12.4488 14.9314 12.7065ZM21.6504 14.0104L20.9151 14.0705L19.9635 15.9223C19.4401 16.9408 18.5092 18.4362 17.8947 19.2455L16.7775 20.7171L17.7375 20.906C18.3216 21.0209 19.0259 21.316 19.5367 21.6596C20.4602 22.2811 20.581 22.3271 20.4597 22.0112C20.2994 21.5936 20.6476 19.1857 21.0066 18.2295C21.6329 16.5609 23.3197 15.0942 24.9682 14.7851C25.3002 14.7227 25.572 14.6137 25.572 14.5428C25.572 14.246 23.0148 13.899 21.6504 14.0104ZM33.9053 17.2164C32.921 17.566 32.1877 17.9094 31.6393 18.2776C31.4561 18.4006 31.5045 18.6597 31.9076 19.7133C32.178 20.4204 32.4506 21.3114 32.5131 21.6934C32.5756 22.0754 32.6769 22.3878 32.738 22.3878C32.7991 22.3878 33.1419 22.1942 33.4997 21.9575C35.6002 20.5682 36.9595 18.2632 36.2852 17.2341C35.947 16.7178 35.3221 16.7132 33.9053 17.2164ZM15.523 17.8617C14.7138 18.6709 14.3453 20.2637 14.9676 20.2637C15.3339 20.2637 16.2091 19.1437 16.4136 18.413C16.7496 17.213 16.3926 16.9921 15.523 17.8617ZM15.5321 18.1248C15.4816 18.2065 15.4841 18.4088 15.5378 18.5741C15.6167 18.8169 15.6029 18.8287 15.4661 18.6352C15.3274 18.4392 15.2641 18.481 15.1177 18.8661C14.9877 19.2083 14.9881 19.3849 15.1197 19.5142C15.3676 19.7575 16.0948 18.9081 16.0948 18.3754C16.0948 17.9823 15.7226 17.8164 15.5321 18.1248ZM22.738 19.4684C22.2229 19.7678 21.9313 20.6914 22.1462 21.3426C22.5996 22.7166 24.6282 22.7003 25.0841 21.3191C25.3104 20.6331 25.089 19.9115 24.5328 19.5218C24.1365 19.2444 23.1728 19.2156 22.738 19.4684ZM22.8661 20.3374C22.7115 20.5733 22.6475 20.8756 22.71 21.0728C22.954 21.8418 24.1205 21.903 24.4569 21.1645C24.8991 20.1941 23.4529 19.4419 22.8661 20.3374ZM13.4948 20.8553C13.2194 21.8477 13.2537 21.9449 13.7664 21.6241C14.0136 21.4694 14.2381 21.329 14.2654 21.3119C14.2927 21.2949 14.1702 21.0426 13.9929 20.7512L13.6708 20.2215L13.4948 20.8553ZM23.2254 20.3771C23.0414 20.5611 23.1135 20.7539 23.3661 20.7539C23.5009 20.7539 23.6112 20.6847 23.6112 20.6001C23.6112 20.3941 23.356 20.2465 23.2254 20.3771ZM15.1145 21.5932L14.5426 21.7689L15.1125 21.9558C15.7288 22.1579 15.9226 22.5766 15.587 22.981C15.306 23.3197 13.5682 24.1852 13.1694 24.1852C12.9813 24.1852 12.7997 24.0334 12.7298 23.8176C12.6197 23.4777 12.5883 23.4994 12.3146 24.1035C11.506 25.8885 12.4594 27.6195 14.2484 27.615C15.0042 27.613 16.3605 26.998 16.8994 26.4127C17.2881 25.9906 17.7288 25.84 17.7288 26.129C17.7288 26.3519 16.653 27.2485 15.964 27.6001C14.9445 28.12 13.9613 28.1903 13.0904 27.805C12.6759 27.6217 12.3367 27.5329 12.3367 27.6081C12.3367 27.6833 12.6654 28.1102 13.0672 28.5571C15.1962 30.9251 19.1292 30.5885 20.6602 27.9076C22.3264 24.9903 20.3244 21.6249 16.8301 21.4687C16.2011 21.4406 15.429 21.4967 15.1145 21.5932ZM23.7746 23.6959C23.3702 23.7651 22.739 23.903 22.3718 24.0026L21.7043 24.1833L21.7801 25.4941C21.8509 26.7146 21.8203 26.8776 21.3367 27.8601C20.494 29.5717 18.7434 30.7155 16.9509 30.7256L16.1765 30.73L16.7484 31.2101C18.286 32.5011 20.4019 33.2209 22.6427 33.2155C25.7651 33.2081 28.6793 31.6637 30.3702 29.1204C31.3846 27.5945 31.4328 27.3097 30.8254 26.4269C29.2872 24.1911 26.7112 23.1934 23.7746 23.6959Z" fill="#FFF7F7"/>
<path d="M50.2287 16.1461V22.0939C50.2287 22.8411 50.0958 23.535 49.83 24.1756C49.562 24.8161 49.1916 25.3727 48.7189 25.8455C48.2461 26.3183 47.6895 26.6875 47.0489 26.9533C46.4084 27.2213 45.7145 27.3553 44.9673 27.3553C44.098 27.3553 43.3659 27.2028 42.7712 26.8978C42.1764 26.5928 41.696 26.2496 41.33 25.8684C40.8877 25.4413 40.537 24.9457 40.2777 24.3814L42.1078 23.2376C42.2603 23.6189 42.4662 23.9468 42.7254 24.2213C42.9389 24.4653 43.2287 24.6864 43.5947 24.8847C43.9607 25.083 44.4182 25.1821 44.9673 25.1821C45.3943 25.1821 45.7951 25.1015 46.1699 24.9403C46.5424 24.7812 46.8703 24.5601 47.1535 24.2769C47.4346 23.9958 47.6557 23.6679 47.8169 23.2932C47.976 22.9207 48.0555 22.5209 48.0555 22.0939V20.035H43.9378V17.9762H48.0555V16.1461C48.0555 15.7191 47.976 15.3183 47.8169 14.9435C47.6557 14.571 47.4346 14.2431 47.1535 13.9599C46.8703 13.6788 46.5424 13.4577 46.1699 13.2965C45.7951 13.1374 45.3943 13.0579 44.9673 13.0579C44.4182 13.0579 43.9607 13.1603 43.5947 13.3651C43.2287 13.5721 42.9389 13.7976 42.7254 14.0416C42.4662 14.3161 42.2603 14.6363 42.1078 15.0024L40.2777 13.8586C40.537 13.3095 40.8877 12.8139 41.33 12.3716C41.696 12.0056 42.1764 11.6658 42.7712 11.352C43.3659 11.0405 44.098 10.8847 44.9673 10.8847C45.7145 10.8847 46.4084 11.0176 47.0489 11.2834C47.6895 11.5514 48.2461 11.9217 48.7189 12.3945C49.1916 12.8673 49.562 13.4239 49.83 14.0644C50.0958 14.705 50.2287 15.3989 50.2287 16.1461ZM55.7189 15.9174V20.4925H57.6633L59.9509 15.9174H62.1241L59.2646 21.522L62.1241 27.1265H59.9509L57.6633 22.5514H55.7189V27.1265H53.6601V17.9762H52.0588V15.9174H55.7189ZM71.7319 19.9207V23.1233C71.7319 23.7485 71.6285 24.3204 71.4215 24.839C71.2167 25.3575 70.928 25.803 70.5555 26.1756C70.1807 26.5503 69.7341 26.84 69.2156 27.0448C68.6971 27.2518 68.1252 27.3553 67.4999 27.3553C66.8746 27.3553 66.3028 27.2518 65.7842 27.0448C65.2657 26.84 64.8202 26.5503 64.4476 26.1756C64.0729 25.803 63.7821 25.3575 63.5751 24.839C63.3703 24.3204 63.2679 23.7485 63.2679 23.1233V19.9207C63.2679 19.2954 63.3703 18.7235 63.5751 18.205C63.7821 17.6864 64.0729 17.2398 64.4476 16.8651C64.8202 16.4925 65.2657 16.2039 65.7842 15.9991C66.3028 15.7921 66.8746 15.6886 67.4999 15.6886C68.1252 15.6886 68.6971 15.7921 69.2156 15.9991C69.7341 16.2039 70.1807 16.4925 70.5555 16.8651C70.928 17.2398 71.2167 17.6864 71.4215 18.205C71.6285 18.7235 71.7319 19.2954 71.7319 19.9207ZM65.3267 19.9207V23.1233C65.3267 23.7638 65.5293 24.2856 65.9346 24.6886C66.3376 25.0939 66.8594 25.2965 67.4999 25.2965C68.1404 25.2965 68.6633 25.0939 69.0685 24.6886C69.4716 24.2856 69.6731 23.7638 69.6731 23.1233V19.9207C69.6731 19.2801 69.4716 18.7573 69.0685 18.352C68.6633 17.949 68.1404 17.7474 67.4999 17.7474C66.8594 17.7474 66.3376 17.949 65.9346 18.352C65.5293 18.7573 65.3267 19.2801 65.3267 19.9207ZM86.6012 27.1265H84.5424V17.9762H80.4248V27.1265H78.3659V17.9762H76.7646V15.9174H86.6012V27.1265ZM97.1241 27.1265H92.3202C91.2831 27.1265 90.452 26.8139 89.8267 26.1886C89.2014 25.5634 88.8888 24.7322 88.8888 23.6952C88.8888 22.6581 89.2014 21.827 89.8267 21.2017C90.452 20.5764 91.2831 20.2638 92.3202 20.2638H95.0653V19.5775C95.0653 19.12 94.9128 18.7387 94.6078 18.4337C94.3027 18.1287 93.9215 17.9762 93.464 17.9762H90.4901V15.9174H93.464C94.562 15.9174 95.4465 16.2529 96.1176 16.9239C96.7886 17.5949 97.1241 18.4795 97.1241 19.5775V27.1265ZM95.0653 22.3226H92.3202C91.9237 22.3226 91.5958 22.4522 91.3365 22.7115C91.0773 22.9708 90.9476 23.2986 90.9476 23.6952C90.9476 24.0917 91.0773 24.4196 91.3365 24.6788C91.5958 24.9381 91.9237 25.0677 92.3202 25.0677H95.0653V22.3226ZM98.9542 15.9174H104.673C105.237 15.9174 105.76 16.0122 106.242 16.2017C106.721 16.3934 107.133 16.6603 107.477 17.0024C107.819 17.3466 108.085 17.7583 108.274 18.2376C108.466 18.7191 108.562 19.242 108.562 19.8063V23.2376C108.562 23.8172 108.466 24.3433 108.274 24.8161C108.085 25.2888 107.819 25.6962 107.477 26.0383C107.133 26.3825 106.721 26.6494 106.242 26.839C105.76 27.0307 105.237 27.1265 104.673 27.1265H102.614V31.9305H100.555V17.9762H98.9542V15.9174ZM106.503 23.2376V19.8063C106.503 19.2878 106.328 18.8531 105.977 18.5024C105.626 18.1516 105.192 17.9762 104.673 17.9762H102.614V25.0677H104.673C105.192 25.0677 105.626 24.8923 105.977 24.5416C106.328 24.1908 106.503 23.7562 106.503 23.2376ZM113.595 15.9174V20.4925H115.539L117.827 15.9174H120L117.14 21.522L120 27.1265H117.827L115.539 22.5514H113.595V27.1265H111.536V17.9762H109.935V15.9174H113.595Z" fill="#FFF7F7"/>
</svg>
