<svg width="150" height="50" viewBox="0 0 105 16" fill="none" xmlns="http://www.w3.org/2000/svg">
<g clip-path="url(#clip0_91_1751)">
<path d="M17.2543 6.111H10.8283L8.84233 0L6.87134 8.083L8.84233 12.223L14.0423 16L12.0563 9.889L17.2543 6.111Z" fill="#02C450"/>
<path d="M6.8574 6.111H0.431396L5.6314 9.888L3.6444 16L8.8444 12.223V0L6.8574 6.111Z" fill="#02C450"/>
</g>
<g clip-path="url(#clip1_91_1751)">
<path d="M39.2543 6.111H32.8283L30.8423 0L28.8713 8.083L30.8423 12.223L36.0423 16L34.0563 9.889L39.2543 6.111Z" fill="#02C450"/>
<path d="M28.8574 6.111H22.4314L27.6314 9.888L25.6444 16L30.8444 12.223V0L28.8574 6.111Z" fill="#02C450"/>
</g>
<g clip-path="url(#clip2_91_1751)">
<path d="M61.2543 6.111H54.8283L52.8423 0L50.8713 8.083L52.8423 12.223L58.0423 16L56.0563 9.889L61.2543 6.111Z" fill="#02C450"/>
<path d="M50.8574 6.111H44.4314L49.6314 9.888L47.6444 16L52.8444 12.223V0L50.8574 6.111Z" fill="#02C450"/>
</g>
<g clip-path="url(#clip3_91_1751)">
<path d="M83.2543 6.111H76.8283L74.8423 0L72.8713 8.083L74.8423 12.223L80.0423 16L78.0563 9.889L83.2543 6.111Z" fill="#02C450"/>
<path d="M72.8574 6.111H66.4314L71.6314 9.888L69.6444 16L74.8444 12.223V0L72.8574 6.111Z" fill="#02C450"/>
</g>
<g clip-path="url(#clip4_91_1751)">
<path d="M83.2543 6.111H76.8283L74.8423 0L72.8713 8.083L74.8423 12.223L80.0423 16L78.0563 9.889L83.2543 6.111Z" fill="#02C450"/>
<path d="M72.8574 6.111H66.4314L71.6314 9.888L69.6444 16L74.8444 12.223V0L72.8574 6.111Z" fill="#02C450"/>
</g>
<g clip-path="url(#clip5_91_1751)">
<path d="M83.2543 6.111H76.8283L74.8423 0L72.8713 8.083L74.8423 12.223L80.0423 16L78.0563 9.889L83.2543 6.111Z" fill="#02C450"/>
<path d="M72.8574 6.111H66.4314L71.6314 9.888L69.6444 16L74.8444 12.223V0L72.8574 6.111Z" fill="#02C450"/>
</g>
<g clip-path="url(#clip6_91_1751)">
<path d="M104.077 6.111H97.6513L95.6653 0L93.6943 8.083L95.6653 12.223L100.865 16L98.8793 9.889L104.077 6.111Z" fill="#BDB9B8"/>
<path d="M93.6804 6.111H87.2544L92.4544 9.888L90.4674 16L95.6674 12.223V0L93.6804 6.111Z" fill="#BDB9B8"/>
</g>
<defs>
<clipPath id="clip0_91_1751">
<rect width="16.823" height="16" fill="white" transform="translate(0.431396)"/>
</clipPath>
<clipPath id="clip1_91_1751">
<rect width="16.823" height="16" fill="white" transform="translate(22.4314)"/>
</clipPath>
<clipPath id="clip2_91_1751">
<rect width="16.823" height="16" fill="white" transform="translate(44.4314)"/>
</clipPath>
<clipPath id="clip3_91_1751">
<rect width="16.823" height="16" fill="white" transform="translate(66.4314)"/>
</clipPath>
<clipPath id="clip4_91_1751">
<rect width="16.823" height="16" fill="white" transform="translate(66.4314)"/>
</clipPath>
<clipPath id="clip5_91_1751">
<rect width="16.823" height="16" fill="white" transform="translate(66.4314)"/>
</clipPath>
<clipPath id="clip6_91_1751">
<rect width="16.823" height="16" fill="white" transform="translate(87.2544)"/>
</clipPath>
</defs>
</svg>
