<svg width="32" height="33" viewBox="0 0 32 33" fill="none" xmlns="http://www.w3.org/2000/svg">
<g clip-path="url(#clip0_4_113)">
<path d="M26.68 20.9115C25.04 20.9115 23.4533 20.6448 21.9733 20.1648C21.5067 20.0048 20.9867 20.1248 20.6267 20.4848L18.5333 23.1115C14.76 21.3115 11.2267 17.9115 9.34667 14.0048L11.9467 11.7915C12.3067 11.4181 12.4133 10.8981 12.2667 10.4315C11.7733 8.95145 11.52 7.36479 11.52 5.72479C11.52 5.00479 10.92 4.40479 10.2 4.40479H5.58667C4.86667 4.40479 4 4.72479 4 5.72479C4 18.1115 14.3067 28.4048 26.68 28.4048C27.6267 28.4048 28 27.5648 28 26.8315V22.2315C28 21.5115 27.4 20.9115 26.68 20.9115Z" fill="#FFF7F7"/>
</g>
<defs>
<clipPath id="clip0_4_113">
<rect width="32" height="32" fill="white" transform="translate(0 0.404785)"/>
</clipPath>
</defs>
</svg>
