<svg width="20" height="21" viewBox="0 0 20 21" fill="none" xmlns="http://www.w3.org/2000/svg">
<mask id="path-1-inside-1_104_1138" fill="white">
<path d="M6.66747 10.2064C6.66747 8.36554 8.15945 6.87282 10.0004 6.87282C11.8414 6.87282 13.3341 8.36554 13.3341 10.2064C13.3341 12.0473 11.8414 13.54 10.0004 13.54C8.15945 13.54 6.66747 12.0473 6.66747 10.2064M4.86531 10.2064C4.86531 13.0424 7.16429 15.3413 10.0004 15.3413C12.8365 15.3413 15.1355 13.0424 15.1355 10.2064C15.1355 7.37042 12.8365 5.07154 10.0004 5.07154C7.16429 5.07154 4.86531 7.37042 4.86531 10.2064M14.1387 4.86794C14.1385 5.53068 14.6755 6.06816 15.3383 6.06842C16.0011 6.06869 16.5386 5.53164 16.5388 4.8689C16.5391 4.20616 16.002 3.66869 15.3393 3.66842H15.3388C14.6763 3.66873 14.1393 4.20551 14.1387 4.86794M5.96024 18.3462C4.98524 18.3018 4.4553 18.1394 4.10312 18.0022C3.63623 17.8204 3.30309 17.6039 2.95284 17.2542C2.60258 16.9044 2.38578 16.5716 2.20481 16.1047C2.06752 15.7527 1.90512 15.2227 1.86079 14.2477C1.81231 13.1936 1.80263 12.877 1.80263 10.2065C1.80263 7.53602 1.81311 7.22026 1.86079 6.1653C1.9052 5.19034 2.0688 4.6613 2.20481 4.30826C2.38658 3.84138 2.60306 3.50826 2.95284 3.15802C3.30261 2.80778 3.63543 2.59098 4.10312 2.41002C4.45514 2.27274 4.98524 2.11034 5.96024 2.06602C7.01436 2.01754 7.33101 2.00786 10.0004 2.00786C12.6698 2.00786 12.9868 2.01834 14.0418 2.06602C15.0168 2.11042 15.5458 2.27402 15.8989 2.41002C16.3658 2.59098 16.6989 2.80826 17.0492 3.15802C17.3994 3.50778 17.6154 3.84138 17.7972 4.30826C17.9345 4.66026 18.0969 5.19034 18.1412 6.1653C18.1897 7.22026 18.1994 7.53602 18.1994 10.2065C18.1994 12.877 18.1897 13.1927 18.1412 14.2477C18.0968 15.2227 17.9336 15.7526 17.7972 16.1047C17.6154 16.5716 17.3989 16.9047 17.0492 17.2542C16.6994 17.6036 16.3658 17.8204 15.8989 18.0022C15.5469 18.1395 15.0168 18.3019 14.0418 18.3462C12.9876 18.3947 12.671 18.4043 10.0004 18.4043C7.32981 18.4043 7.01404 18.3947 5.96024 18.3462M5.87744 0.266981C4.81283 0.315461 4.08536 0.484261 3.45006 0.731461C2.79211 0.986741 2.23513 1.32922 1.67855 1.8849C1.12196 2.44058 0.780351 2.99842 0.525061 3.65634C0.277851 4.29202 0.109044 5.01906 0.0605624 6.08362C0.0112804 7.14986 0 7.49074 0 10.2064C0 12.9221 0.0112804 13.263 0.0605624 14.3292C0.109044 15.3939 0.277851 16.1208 0.525061 16.7565C0.780351 17.414 1.12204 17.9725 1.67855 18.5279C2.23505 19.0834 2.79211 19.4254 3.45006 19.6814C4.08656 19.9286 4.81283 20.0974 5.87744 20.1459C6.94428 20.1943 7.28461 20.2064 10.0004 20.2064C12.7162 20.2064 13.0571 20.1951 14.1234 20.1459C15.188 20.0974 15.915 19.9286 16.5507 19.6814C17.2083 19.4254 17.7657 19.0836 18.3223 18.5279C18.8788 17.9723 19.2197 17.414 19.4757 16.7565C19.7229 16.1208 19.8926 15.3938 19.9402 14.3292C19.9887 13.2622 20 12.9221 20 10.2064C20 7.49074 19.9887 7.14986 19.9402 6.08362C19.8918 5.01898 19.7229 4.29162 19.4757 3.65634C19.2197 2.99882 18.878 2.44146 18.3223 1.8849C17.7666 1.32834 17.2083 0.986741 16.5515 0.731461C15.915 0.484261 15.188 0.314661 14.1242 0.266981C13.0579 0.218501 12.717 0.206421 10.0012 0.206421C7.28541 0.206421 6.94428 0.217701 5.87744 0.266981"/>
</mask>
<path d="M15.3383 6.06842L15.3379 7.06842L15.3383 6.06842ZM15.3393 3.66842L15.3397 2.66842H15.3393V3.66842ZM15.3388 3.66842V2.66842H15.3383L15.3388 3.66842ZM4.10312 18.0022L4.46613 17.0704L4.4659 17.0703L4.10312 18.0022ZM2.20481 16.1047L3.13722 15.7433L3.13646 15.7414L2.20481 16.1047ZM1.86079 14.2477L2.85976 14.2023L2.85974 14.2018L1.86079 14.2477ZM1.86079 6.1653L0.86183 6.11981L0.861814 6.12015L1.86079 6.1653ZM2.20481 4.30826L1.27293 3.94546L1.27166 3.94877L2.20481 4.30826ZM4.10312 2.41002L4.46397 3.34265L4.46646 3.34168L4.10312 2.41002ZM5.96024 2.06602L6.00565 3.06499L6.00618 3.06497L5.96024 2.06602ZM14.0418 2.06602L14.0873 1.06706L14.0869 1.06704L14.0418 2.06602ZM15.8989 2.41002L16.2603 1.4776L16.2583 1.47686L15.8989 2.41002ZM17.7972 4.30826L16.8653 4.67106L16.8655 4.67162L17.7972 4.30826ZM18.1412 6.1653L17.1422 6.21071L17.1423 6.21121L18.1412 6.1653ZM18.1412 14.2477L17.1423 14.2018L17.1422 14.2022L18.1412 14.2477ZM17.7972 16.1047L18.7291 16.4675L18.7297 16.4659L17.7972 16.1047ZM15.8989 18.0022L15.5361 17.0703L15.5355 17.0705L15.8989 18.0022ZM14.0418 18.3462L13.9964 17.3472L13.9958 17.3472L14.0418 18.3462ZM3.45006 0.731461L3.81178 1.66375L3.81268 1.6634L3.45006 0.731461ZM0.525061 3.65634L1.45707 4.01879L1.45734 4.01809L0.525061 3.65634ZM0.0605624 6.08362L1.0595 6.12979L1.05953 6.12912L0.0605624 6.08362ZM0.0605624 14.3292L1.05953 14.2837L1.0595 14.283L0.0605624 14.3292ZM0.525061 16.7565L1.45726 16.3946L1.45707 16.3941L0.525061 16.7565ZM3.45006 19.6814L3.08745 20.6133L3.08803 20.6136L3.45006 19.6814ZM5.87744 20.1459L5.83194 21.1448L5.83204 21.1448L5.87744 20.1459ZM14.1234 20.1459L14.0779 19.1469L14.0772 19.1469L14.1234 20.1459ZM16.5507 19.6814L16.9132 20.6134L16.9135 20.6132L16.5507 19.6814ZM19.4757 16.7565L20.4076 17.1193L20.4077 17.1189L19.4757 16.7565ZM19.9402 14.3292L18.9413 14.2838L18.9412 14.2845L19.9402 14.3292ZM19.9402 6.08362L20.9392 6.0382L20.9392 6.03813L19.9402 6.08362ZM19.4757 3.65634L20.4077 3.2937L20.4076 3.29352L19.4757 3.65634ZM16.5515 0.731461L16.9138 -0.200602L16.9136 -0.200707L16.5515 0.731461ZM14.1242 0.266981L14.0787 1.26595L14.0794 1.26598L14.1242 0.266981ZM7.66747 10.2064C7.66747 8.91755 8.71201 7.87282 10.0004 7.87282V5.87282C7.60689 5.87282 5.66747 7.81353 5.66747 10.2064H7.66747ZM10.0004 7.87282C11.2891 7.87282 12.3341 8.91786 12.3341 10.2064H14.3341C14.3341 7.81322 12.3936 5.87282 10.0004 5.87282V7.87282ZM12.3341 10.2064C12.3341 11.495 11.2891 12.54 10.0004 12.54V14.54C12.3936 14.54 14.3341 12.5996 14.3341 10.2064H12.3341ZM10.0004 12.54C8.71201 12.54 7.66747 11.4953 7.66747 10.2064H5.66747C5.66747 12.5993 7.60689 14.54 10.0004 14.54V12.54ZM3.86531 10.2064C3.86531 13.5947 6.61204 16.3413 10.0004 16.3413V14.3413C7.71653 14.3413 5.86531 12.4901 5.86531 10.2064H3.86531ZM10.0004 16.3413C13.3888 16.3413 16.1355 13.5947 16.1355 10.2064H14.1355C14.1355 12.4901 12.2843 14.3413 10.0004 14.3413V16.3413ZM16.1355 10.2064C16.1355 6.8181 13.3888 4.07154 10.0004 4.07154V6.07154C12.2843 6.07154 14.1355 7.92274 14.1355 10.2064H16.1355ZM10.0004 4.07154C6.61204 4.07154 3.86531 6.8181 3.86531 10.2064H5.86531C5.86531 7.92274 7.71653 6.07154 10.0004 6.07154V4.07154ZM13.1387 4.86754C13.1382 6.0826 14.1229 7.06793 15.3379 7.06842L15.3387 5.06842C15.2282 5.06838 15.1387 4.97876 15.1387 4.86834L13.1387 4.86754ZM15.3379 7.06842C16.5529 7.06891 17.5383 6.08437 17.5388 4.8693L15.5388 4.8685C15.5388 4.97892 15.4492 5.06847 15.3387 5.06842L15.3379 7.06842ZM17.5388 4.8693C17.5393 3.65424 16.5547 2.66891 15.3397 2.66842L15.3389 4.66842C15.4494 4.66847 15.5389 4.75808 15.5388 4.8685L17.5388 4.8693ZM15.3393 2.66842H15.3388V4.66842H15.3393V2.66842ZM15.3383 2.66842C14.1241 2.66899 13.1398 3.65285 13.1387 4.86707L15.1387 4.86881C15.1388 4.75818 15.2285 4.66847 15.3392 4.66842L15.3383 2.66842ZM6.00573 17.3472C5.14026 17.3078 4.71752 17.1683 4.46613 17.0704L3.74012 18.934C4.19308 19.1104 4.83022 19.2958 5.91475 19.3451L6.00573 17.3472ZM4.4659 17.0703C4.12601 16.938 3.91042 16.7972 3.65945 16.5466L2.24623 17.9618C2.69577 18.4107 3.14644 18.7029 3.74035 18.9341L4.4659 17.0703ZM3.65945 16.5466C3.40862 16.2961 3.2683 16.0815 3.13722 15.7433L1.2724 16.4662C1.50325 17.0617 1.79655 17.5127 2.24623 17.9618L3.65945 16.5466ZM3.13646 15.7414C3.0386 15.4905 2.89911 15.0678 2.85976 14.2023L0.861826 14.2931C0.911125 15.3776 1.09644 16.015 1.27316 16.4681L3.13646 15.7414ZM2.85974 14.2018C2.81234 13.1713 2.80263 12.8731 2.80263 10.2065H0.802632C0.802632 12.8808 0.812284 13.216 0.861851 14.2936L2.85974 14.2018ZM2.80263 10.2065C2.80263 7.54059 2.81312 7.24265 2.85977 6.21045L0.861814 6.12015C0.813103 7.19787 0.802632 7.53145 0.802632 10.2065H2.80263ZM2.85976 6.2108C2.89908 5.34737 3.03917 4.92417 3.13796 4.66775L1.27166 3.94877C1.09843 4.39843 0.911311 5.03331 0.86183 6.11981L2.85976 6.2108ZM3.13668 4.67106C3.26899 4.3312 3.40979 4.11562 3.66042 3.86466L2.24526 2.45139C1.79634 2.9009 1.50416 3.35156 1.27294 3.94546L3.13668 4.67106ZM3.66042 3.86466C3.9108 3.61394 4.12523 3.47371 4.46397 3.34265L3.74228 1.4774C3.14562 1.70825 2.69443 2.00162 2.24526 2.45139L3.66042 3.86466ZM4.46646 3.34168C4.71738 3.24383 5.14012 3.10433 6.00565 3.06499L5.91483 1.06705C4.83036 1.11635 4.1929 1.30166 3.73979 1.47836L4.46646 3.34168ZM6.00618 3.06497C7.03672 3.01757 7.33486 3.00786 10.0004 3.00786V1.00786C7.32717 1.00786 6.992 1.01751 5.9143 1.06708L6.00618 3.06497ZM10.0004 3.00786C12.6652 3.00786 12.9644 3.01835 13.9966 3.065L14.0869 1.06704C13.0091 1.01833 12.6743 1.00786 10.0004 1.00786V3.00786ZM13.9963 3.06499C14.8597 3.10431 15.283 3.2444 15.5394 3.34318L16.2583 1.47686C15.8087 1.30364 15.1738 1.11654 14.0873 1.06706L13.9963 3.06499ZM15.5375 3.34244C15.8754 3.4734 16.0909 3.61429 16.3426 3.86563L17.7558 2.45042C17.307 2.00224 16.8561 1.70856 16.2603 1.4776L15.5375 3.34244ZM16.3426 3.86563C16.5922 4.11491 16.7326 4.33027 16.8653 4.67106L18.7291 3.94546C18.4982 3.35249 18.2066 2.90065 17.7558 2.45042L16.3426 3.86563ZM16.8655 4.67162C16.9634 4.92252 17.1029 5.34523 17.1422 6.21071L19.1402 6.11989C19.0909 5.03545 18.9056 4.398 18.7288 3.9449L16.8655 4.67162ZM17.1423 6.21121C17.1897 7.24261 17.1994 7.53988 17.1994 10.2065H19.1994C19.1994 7.53216 19.1897 7.19791 19.1402 6.11939L17.1423 6.21121ZM17.1994 10.2065C17.1994 12.8731 17.1897 13.1704 17.1423 14.2018L19.1402 14.2936C19.1897 13.2151 19.1994 12.8808 19.1994 10.2065H17.1994ZM17.1422 14.2022C17.1029 15.0665 16.9629 15.49 16.8647 15.7435L18.7297 16.4659C18.9043 16.0152 19.0907 15.3788 19.1402 14.2932L17.1422 14.2022ZM16.8653 15.7419C16.733 16.0819 16.5923 16.297 16.3424 16.5467L17.7559 17.9616C18.2055 17.5124 18.4979 17.0614 18.7291 16.4675L16.8653 15.7419ZM16.3424 16.5467C16.092 16.7969 15.8761 16.938 15.5361 17.0703L16.2616 18.9341C16.8555 18.7029 17.3067 18.4104 17.7559 17.9616L16.3424 16.5467ZM15.5355 17.0705C15.2846 17.1684 14.8619 17.3079 13.9964 17.3472L14.0872 19.3451C15.1716 19.2959 15.8091 19.1105 16.2622 18.9338L15.5355 17.0705ZM13.9958 17.3472C12.9653 17.3946 12.6671 17.4043 10.0004 17.4043V19.4043C12.6748 19.4043 13.01 19.3947 14.0877 19.3451L13.9958 17.3472ZM10.0004 17.4043C7.33366 17.4043 7.0364 17.3946 6.00619 17.3472L5.91428 19.3451C6.99168 19.3947 7.32597 19.4043 10.0004 19.4043V17.4043ZM5.83194 -0.731984C4.67287 -0.679202 3.83654 -0.491955 3.08744 -0.200476L3.81268 1.6634C4.33419 1.46048 4.95279 1.31012 5.92293 1.26595L5.83194 -0.731984ZM3.08834 -0.200825C2.30926 0.101454 1.63271 0.517596 0.972014 1.17722L2.38508 2.59258C2.83755 2.14085 3.27497 1.87203 3.81178 1.66375L3.08834 -0.200825ZM0.972014 1.17722C0.309792 1.83837 -0.105354 2.51665 -0.407215 3.29459L1.45734 4.01809C1.66606 3.48019 1.93414 3.04279 2.38508 2.59258L0.972014 1.17722ZM-0.406943 3.29389C-0.698328 4.04317 -0.885612 4.87898 -0.938402 6.03813L1.05953 6.12912C1.1037 5.15915 1.25403 4.54088 1.45707 4.01879L-0.406943 3.29389ZM-0.938371 6.03745C-0.98873 7.12698 -1 7.48609 -1 10.2064H1C1 7.49539 1.01129 7.17274 1.0595 6.12979L-0.938371 6.03745ZM-1 10.2064C-1 12.9267 -0.98873 13.2859 -0.938371 14.3754L1.0595 14.283C1.01129 13.2401 1 12.9175 1 10.2064H-1ZM-0.938402 14.3747C-0.885612 15.534 -0.698325 16.3697 -0.406943 17.1189L1.45707 16.3941C1.25403 15.872 1.1037 15.2538 1.05953 14.2837L-0.938402 14.3747ZM-0.407141 17.1184C-0.105403 17.8956 0.309717 18.5746 0.972116 19.2357L2.38498 17.8202C1.93437 17.3704 1.66611 16.9325 1.45726 16.3946L-0.407141 17.1184ZM0.972116 19.2357C1.63301 19.8954 2.3095 20.3106 3.08745 20.6133L3.81267 18.7494C3.27473 18.5401 2.83709 18.2714 2.38498 17.8202L0.972116 19.2357ZM3.08803 20.6136C3.8377 20.9047 4.67253 21.092 5.83194 21.1448L5.92293 19.1469C4.95314 19.1027 4.33543 18.9525 3.81208 18.7492L3.08803 20.6136ZM5.83204 21.1448C6.92136 21.1943 7.27927 21.2064 10.0004 21.2064V19.2064C7.28996 19.2064 6.9672 19.1944 5.92283 19.1469L5.83204 21.1448ZM10.0004 21.2064C12.7208 21.2064 13.08 21.1952 14.1695 21.1448L14.0772 19.1469C13.0342 19.1951 12.7115 19.2064 10.0004 19.2064V21.2064ZM14.1689 21.1448C15.3281 21.092 16.1639 20.9048 16.9132 20.6134L16.1883 18.7494C15.6662 18.9524 15.048 19.1027 14.0779 19.1469L14.1689 21.1448ZM16.9135 20.6132C17.6907 20.3107 18.3676 19.8958 19.0288 19.2356L17.6157 17.8203C17.1638 18.2715 16.7259 18.5401 16.1879 18.7495L16.9135 20.6132ZM19.0288 19.2356C19.6915 18.5739 20.1055 17.8953 20.4076 17.1193L18.5439 16.3937C18.334 16.9327 18.0661 17.3706 17.6157 17.8203L19.0288 19.2356ZM20.4077 17.1189C20.6989 16.3702 20.8873 15.5343 20.9392 14.374L18.9412 14.2845C18.8978 15.2533 18.747 15.8715 18.5437 16.3941L20.4077 17.1189ZM20.9392 14.3746C20.9887 13.2848 21 12.9268 21 10.2064H19C19 12.9174 18.9887 13.2396 18.9413 14.2838L20.9392 14.3746ZM21 10.2064C21 7.48603 20.9887 7.12728 20.9392 6.0382L18.9413 6.12904C18.9887 7.17244 19 7.49545 19 10.2064H21ZM20.9392 6.03813C20.8864 4.879 20.6992 4.04277 20.4077 3.2937L18.5438 4.01899C18.7467 4.54047 18.8971 5.15896 18.9413 6.12911L20.9392 6.03813ZM20.4076 3.29352C20.105 2.51642 19.6901 1.83955 19.0299 1.17834L17.6146 2.59146C18.0658 3.04337 18.3344 3.48122 18.5439 4.01917L20.4076 3.29352ZM19.0299 1.17834C18.3687 0.516078 17.6901 0.101124 16.9138 -0.200602L16.1892 1.66352C16.7265 1.87236 17.1644 2.1406 17.6146 2.59146L19.0299 1.17834ZM16.9136 -0.200707C16.1643 -0.491688 15.3286 -0.68004 14.1689 -0.732016L14.0794 1.26598C15.0473 1.30936 15.6657 1.46021 16.1895 1.66363L16.9136 -0.200707ZM14.1696 -0.731987C13.0808 -0.78149 12.7223 -0.793579 10.0012 -0.793579V1.20642C12.7117 1.20642 13.035 1.21849 14.0787 1.26595L14.1696 -0.731987ZM10.0012 -0.793579C7.28076 -0.793579 6.92141 -0.782309 5.83129 -0.731954L5.92358 1.26592C6.96715 1.21771 7.29006 1.20642 10.0012 1.20642V-0.793579Z" fill="#FFF7F7" mask="url(#path-1-inside-1_104_1138)"/>
</svg>
