<svg width="180" height="65" viewBox="0 0 180 65" fill="none" xmlns="http://www.w3.org/2000/svg">
<path d="M18.3284 0.549648C18.4196 0.36875 18.5387 0.203329 18.6814 0.0594524C18.8864 0.0137148 19.0965 -0.00523412 19.3064 0.00307984C20.0417 0.0177857 20.777 0.00307984 21.5123 0.00307984H53.9216C54.4118 0.00307984 54.902 0.00307984 55.3921 0.00307984C55.6016 -0.00724084 55.8115 0.00840092 56.0171 0.0496485C56.2456 0.305769 56.434 0.594991 56.576 0.907492C57.7475 2.9369 58.9207 4.96631 60.0956 6.99573C60.3235 7.33355 60.5157 7.69415 60.6691 8.07171C60.4086 8.27004 60.1314 8.44553 59.8407 8.59622C59.5786 8.76462 59.3041 8.91292 59.0196 9.03984C58.844 8.80047 58.6883 8.54718 58.5539 8.28249C57.4093 6.28249 56.2426 4.2972 55.1078 2.2923C55.0294 2.17955 54.9608 2.02514 54.8064 2.00798C54.399 1.96992 53.9894 1.96173 53.5809 1.98347H22.0147C21.4935 1.98347 20.973 1.98347 20.4534 1.98347C20.2447 1.97276 20.0354 1.98924 19.8309 2.03249C19.6872 2.17549 19.568 2.34108 19.4779 2.52269C19.1618 3.10112 18.8235 3.66975 18.4975 4.23837C13.759 12.4345 9.02532 20.633 4.29657 28.834C3.68627 29.8683 3.11274 30.9222 2.48774 31.9492C2.40283 32.0806 2.33683 32.2233 2.29167 32.3732C2.3296 32.5671 2.40811 32.7509 2.52206 32.9124C2.88725 33.5104 3.22794 34.1207 3.57843 34.7261C8.77124 43.713 13.9649 52.709 19.1593 61.7139C19.3823 62.0692 19.5294 62.481 19.8333 62.78C20.2577 62.8324 20.686 62.8455 21.1127 62.8192H53.5907C54.0191 62.8455 54.449 62.8323 54.875 62.78C55.0918 62.5424 55.2697 62.2718 55.402 61.9786C56.4019 60.2465 57.402 58.5137 58.402 56.78C58.5526 56.4776 58.7306 56.1896 58.9338 55.9197C59.2086 56.0312 59.4728 56.1674 59.723 56.3266C60.0316 56.4806 60.3218 56.6689 60.5882 56.8879C60.4406 57.2285 60.2651 57.5564 60.0637 57.8683C58.9199 59.847 57.7761 61.8225 56.6323 63.7947C56.4338 64.1183 56.3039 64.5031 56.0147 64.7604C55.8089 64.8005 55.5991 64.8161 55.3897 64.807C54.6225 64.7923 53.8554 64.807 53.0907 64.807H21.6029C20.8382 64.807 20.0711 64.807 19.3064 64.807C19.0968 64.8165 18.8869 64.8 18.6814 64.758C18.4487 64.4767 18.2527 64.167 18.098 63.8364C12.3791 53.9426 6.66585 44.0464 0.958333 34.1477C0.713235 33.7163 0.468137 33.2825 0.198529 32.856C0.0994863 32.7115 0.0318535 32.5479 0 32.3756C0.0465287 32.2274 0.113339 32.0864 0.198529 31.9565C0.688725 31.155 1.1348 30.3217 1.61765 29.5055C6.82843 20.481 12.0417 11.4549 17.2574 2.4271C17.6103 1.7972 17.9877 1.18445 18.3284 0.549648Z" fill="#FFF7F7"/>
<path fill-rule="evenodd" clip-rule="evenodd" d="M22.2405 16.9762C21.9564 17.2794 21.6003 17.8539 21.4491 18.2529C21.0304 19.3573 20.8628 23.4639 21.1697 25.0941C21.4368 26.5139 21.4275 26.5595 20.4584 28.5254C19.9184 29.6213 19.328 31.2377 19.1461 32.1176C18.9645 32.9975 18.4599 34.3485 18.0246 35.1198C15.9145 38.8583 17.4628 43.4433 21.476 45.3414C22.24 45.7026 23.4557 46.5186 24.1775 47.1543C26.9927 49.6335 30.63 50.8686 34.5574 50.6789C38.292 50.4987 41.2363 49.3019 44.0594 46.8168C46.2312 44.9053 48.3503 41.0296 48.776 38.1914C48.9434 37.0747 48.989 37.0257 50.8684 35.9335C53.1128 34.6296 55.7665 32.2377 56.6596 30.7134C57.4427 29.3774 58.2108 26.9514 58.2108 25.8149C58.2108 24.3742 57.529 23.2835 56.2839 22.7328C54.0309 21.7362 49.2047 22.6301 46.3444 24.574L45.388 25.2237L44.1804 24.1382C42.575 22.6948 40.5505 21.4914 38.603 20.823C36.5552 20.1203 32.4508 19.9105 30.5905 20.4132L29.3179 20.7573L27.8944 19.2985C27.1113 18.4963 26.0405 17.5213 25.5148 17.1323C24.3069 16.2382 22.9905 16.1754 22.2405 16.9762ZM22.3971 19.0595C22.1121 19.7914 22.4003 22.6048 22.8873 23.8448L23.1542 24.5247L24.5422 23.3941C25.3057 22.7722 26.1898 22.1453 26.5069 22.0009C26.8241 21.8563 27.0834 21.6482 27.0834 21.5382C27.0834 21.1857 23.5459 18.3931 23.0944 18.3892C22.8449 18.387 22.5476 18.673 22.3971 19.0595ZM32.4755 21.0154L31.3726 21.1056L29.9451 23.8833C29.1601 25.411 27.7638 27.6541 26.842 28.8681L25.1662 31.0754L26.6062 31.3588C27.4824 31.5311 28.5388 31.9737 29.305 32.4892C30.6902 33.4215 30.8714 33.4904 30.6895 33.0166C30.4491 32.3901 30.9714 28.7784 31.5099 27.3441C32.4493 24.8411 34.9795 22.6411 37.4523 22.1774C37.9503 22.0838 38.3579 21.9203 38.3579 21.8139C38.3579 21.3688 34.5221 20.8482 32.4755 21.0154ZM50.8579 25.8245C49.3814 26.3487 48.2814 26.8639 47.4589 27.4161C47.1841 27.6007 47.2567 27.9894 47.8613 29.5698C48.267 30.6303 48.6758 31.9669 48.7697 32.5399C48.8633 33.1129 49.0152 33.5816 49.1069 33.5816C49.1986 33.5816 49.7128 33.2911 50.2496 32.936C53.4003 30.8521 55.4393 27.3945 54.4277 25.8509C53.9204 25.0764 52.9831 25.0695 50.8579 25.8245ZM23.2844 26.7923C22.0706 28.0061 21.5179 30.3953 22.4513 30.3953C23.0008 30.3953 24.3135 28.7154 24.6204 27.6193C25.1243 25.8193 24.5888 25.4879 23.2844 26.7923ZM23.2981 27.187C23.2224 27.3095 23.226 27.6129 23.3067 27.861C23.4251 28.2252 23.4042 28.2428 23.1991 27.9526C22.991 27.6585 22.8961 27.7213 22.6765 28.299C22.4814 28.8122 22.4822 29.0771 22.6795 29.271C23.0513 29.636 24.1422 28.362 24.1422 27.5629C24.1422 26.9732 23.5839 26.7245 23.2981 27.187ZM34.1069 29.2024C33.3344 29.6514 32.8969 31.037 33.2192 32.0137C33.8993 34.0747 36.9422 34.0502 37.626 31.9784C37.9655 30.9495 37.6334 29.8671 36.7991 29.2825C36.2047 28.8664 34.7591 28.8232 34.1069 29.2024ZM34.2991 30.5058C34.0672 30.8597 33.9711 31.3132 34.065 31.609C34.4309 32.7624 36.1807 32.8544 36.6853 31.7465C37.3486 30.2909 35.1792 29.1627 34.2991 30.5058ZM20.2422 31.2828C19.829 32.7713 19.8804 32.9171 20.6496 32.436C21.0204 32.2039 21.3572 31.9933 21.3981 31.9676C21.439 31.9421 21.2552 31.5637 20.9893 31.1267L20.5062 30.332L20.2422 31.2828ZM34.838 30.5654C34.5621 30.8414 34.6701 31.1306 35.0491 31.1306C35.2513 31.1306 35.4167 31.0269 35.4167 30.8999C35.4167 30.5909 35.0339 30.3695 34.838 30.5654ZM22.6716 32.3896L21.8138 32.6531L22.6687 32.9335C23.5932 33.2367 23.8839 33.8646 23.3804 34.4713C22.9589 34.9794 20.3523 36.2776 19.754 36.2776C19.4719 36.2776 19.1996 36.0499 19.0947 35.7262C18.9295 35.2164 18.8824 35.249 18.4719 36.1551C17.2589 38.8325 18.689 41.4291 21.3726 41.4222C22.5062 41.4193 24.5407 40.4968 25.3491 39.6188C25.9322 38.9857 26.5932 38.7597 26.5932 39.1933C26.5932 39.5276 24.9795 40.8725 23.9459 41.3999C22.4167 42.1798 20.942 42.2852 19.6356 41.7073C19.0138 41.4323 18.505 41.2992 18.505 41.4119C18.505 41.5247 18.9981 42.1651 19.6008 42.8355C22.7942 46.3874 28.6937 45.8825 30.9902 41.8612C33.4895 37.4852 30.4866 32.4372 25.2451 32.2029C24.3015 32.1607 23.1434 32.2448 22.6716 32.3896ZM35.6618 35.5436C35.0552 35.6475 34.1084 35.8544 33.5576 36.0036L32.5564 36.2747L32.6701 38.2409C32.7763 40.0718 32.7304 40.3161 32.005 41.7899C30.741 44.3573 28.115 46.073 25.4263 46.0882L24.2648 46.0948L25.1226 46.8149C27.429 48.7514 30.6027 49.8311 33.964 49.823C38.6476 49.8119 43.0189 47.4953 45.5552 43.6803C47.0768 41.3916 47.1491 40.9644 46.238 39.6401C43.9307 36.2865 40.0667 34.7899 35.6618 35.5436Z" fill="#FFF7F7"/>
<path d="M75.3431 24.2193V33.1409C75.3431 34.2618 75.1437 35.3026 74.7451 36.2634C74.3431 37.2242 73.7875 38.0592 73.0784 38.7683C72.3692 39.4775 71.5343 40.0314 70.5735 40.4301C69.6127 40.832 68.5719 41.033 67.4509 41.033C66.147 41.033 65.049 40.8043 64.1568 40.3468C63.2647 39.8892 62.5441 39.3745 61.9951 38.8026C61.3317 38.1621 60.8055 37.4186 60.4166 36.5722L63.1617 34.8566C63.3905 35.4285 63.6993 35.9203 64.0882 36.332C64.4085 36.6981 64.8431 37.0298 65.3921 37.3271C65.9411 37.6245 66.6274 37.7732 67.4509 37.7732C68.0915 37.7732 68.6928 37.6523 69.2549 37.4105C69.8137 37.1719 70.3055 36.8402 70.7303 36.4154C71.1519 35.9938 71.4836 35.502 71.7254 34.9399C71.964 34.3811 72.0833 33.7814 72.0833 33.1409V30.0526H65.9068V26.9644H72.0833V24.2193C72.0833 23.5788 71.964 22.9775 71.7254 22.4154C71.4836 21.8566 71.1519 21.3647 70.7303 20.9399C70.3055 20.5183 69.8137 20.1866 69.2549 19.9448C68.6928 19.7062 68.0915 19.587 67.4509 19.587C66.6274 19.587 65.9411 19.7405 65.3921 20.0477C64.8431 20.3582 64.4085 20.6964 64.0882 21.0624C63.6993 21.4742 63.3905 21.9546 63.1617 22.5036L60.4166 20.7879C60.8055 19.9644 61.3317 19.2209 61.9951 18.5575C62.5441 18.0085 63.2647 17.4987 64.1568 17.0281C65.049 16.5608 66.147 16.3271 67.4509 16.3271C68.5719 16.3271 69.6127 16.5265 70.5735 16.9252C71.5343 17.3271 72.3692 17.8827 73.0784 18.5919C73.7875 19.301 74.3431 20.136 74.7451 21.0968C75.1437 22.0575 75.3431 23.0984 75.3431 24.2193ZM83.5784 23.8762V30.7389H86.495L89.9264 23.8762H93.1862L88.897 32.283L93.1862 40.6899H89.9264L86.495 33.8271H83.5784V40.6899H80.4901V26.9644H78.0882V23.8762H83.5784ZM107.598 29.8811V34.685C107.598 35.6229 107.443 36.4807 107.132 37.2585C106.825 38.0363 106.392 38.7046 105.833 39.2634C105.271 39.8255 104.601 40.2602 103.823 40.5673C103.046 40.8778 102.188 41.033 101.25 41.033C100.312 41.033 99.4542 40.8778 98.6764 40.5673C97.8986 40.2602 97.2303 39.8255 96.6715 39.2634C96.1094 38.7046 95.6732 38.0363 95.3627 37.2585C95.0555 36.4807 94.9019 35.6229 94.9019 34.685V29.8811C94.9019 28.9432 95.0555 28.0853 95.3627 27.3075C95.6732 26.5298 96.1094 25.8598 96.6715 25.2977C97.2303 24.7389 97.8986 24.3059 98.6764 23.9987C99.4542 23.6883 100.312 23.533 101.25 23.533C102.188 23.533 103.046 23.6883 103.823 23.9987C104.601 24.3059 105.271 24.7389 105.833 25.2977C106.392 25.8598 106.825 26.5298 107.132 27.3075C107.443 28.0853 107.598 28.9432 107.598 29.8811ZM97.9901 29.8811V34.685C97.9901 35.6458 98.2941 36.4285 98.9019 37.033C99.5065 37.6409 100.289 37.9448 101.25 37.9448C102.211 37.9448 102.995 37.6409 103.603 37.033C104.207 36.4285 104.51 35.6458 104.51 34.685V29.8811C104.51 28.9203 104.207 28.136 103.603 27.5281C102.995 26.9236 102.211 26.6213 101.25 26.6213C100.289 26.6213 99.5065 26.9236 98.9019 27.5281C98.2941 28.136 97.9901 28.9203 97.9901 29.8811ZM129.902 40.6899H126.814V26.9644H120.637V40.6899H117.549V26.9644H115.147V23.8762H129.902V40.6899ZM145.686 40.6899H138.48C136.925 40.6899 135.678 40.2209 134.74 39.283C133.802 38.3451 133.333 37.0984 133.333 35.5428C133.333 33.9873 133.802 32.7405 134.74 31.8026C135.678 30.8647 136.925 30.3958 138.48 30.3958H142.598V29.3664C142.598 28.6801 142.369 28.1082 141.912 27.6507C141.454 27.1932 140.882 26.9644 140.196 26.9644H135.735V23.8762H140.196C141.843 23.8762 143.17 24.3794 144.176 25.386C145.183 26.3925 145.686 27.7193 145.686 29.3664V40.6899ZM142.598 33.484H138.48C137.886 33.484 137.394 33.6785 137.005 34.0673C136.616 34.4562 136.422 34.9481 136.422 35.5428C136.422 36.1376 136.616 36.6294 137.005 37.0183C137.394 37.4072 137.886 37.6017 138.48 37.6017H142.598V33.484ZM148.431 23.8762H157.01C157.856 23.8762 158.64 24.0183 159.363 24.3026C160.082 24.5902 160.699 24.9905 161.216 25.5036C161.729 26.02 162.127 26.6376 162.412 27.3566C162.699 28.0788 162.843 28.8631 162.843 29.7095V34.8566C162.843 35.7258 162.699 36.5151 162.412 37.2242C162.127 37.9334 161.729 38.5445 161.216 39.0575C160.699 39.5739 160.082 39.9742 159.363 40.2585C158.64 40.5461 157.856 40.6899 157.01 40.6899H153.921V47.8958H150.833V26.9644H148.431V23.8762ZM159.755 34.8566V29.7095C159.755 28.9317 159.492 28.2798 158.966 27.7536C158.439 27.2275 157.788 26.9644 157.01 26.9644H153.921V37.6017H157.01C157.788 37.6017 158.439 37.3386 158.966 36.8124C159.492 36.2863 159.755 35.6343 159.755 34.8566ZM170.392 23.8762V30.7389H173.309L176.74 23.8762H180L175.711 32.283L180 40.6899H176.74L173.309 33.8271H170.392V40.6899H167.304V26.9644H164.902V23.8762H170.392Z" fill="#FFF7F7"/>
</svg>
