<svg width="15" height="17" viewBox="0 0 15 17" fill="none" xmlns="http://www.w3.org/2000/svg">
<path d="M0.75 2.87256V4.37749C0.75 10.3836 5.6189 15.2525 11.625 15.2525H13.125C13.7463 15.2525 14.25 14.7488 14.25 14.1275V12.2037C14.25 11.7195 13.9401 11.2896 13.4808 11.1364L11.0933 10.3406C10.612 10.1802 10.0829 10.3617 9.8015 10.7838L9.25478 11.6039C8.97337 12.026 8.44425 12.2076 7.96296 12.0472L6.81891 11.6658C5.64571 11.2747 4.74557 10.3232 4.42019 9.13012L3.94989 7.40572C3.79279 6.82968 4.11306 6.23125 4.6795 6.04244L5.13141 5.8918C5.60421 5.73421 5.89208 5.25607 5.81015 4.76449L5.464 2.68761C5.37359 2.14515 4.90425 1.74756 4.35431 1.74756H1.875C1.25368 1.74756 0.75 2.25124 0.75 2.87256ZM0 2.87256C0 1.83702 0.839466 0.997559 1.875 0.997559H4.35431C5.27088 0.997559 6.05311 1.66021 6.2038 2.56431L6.54994 4.64119C6.69255 5.49681 6.19149 6.32901 5.36859 6.60331L4.91667 6.75395C4.72785 6.81689 4.6211 7.01637 4.67347 7.20838L5.14376 8.93279C5.40317 9.88395 6.12078 10.6425 7.05609 10.9543L8.20014 11.3357C8.36056 11.3891 8.53694 11.3286 8.63074 11.1879L9.17746 10.3678C9.64648 9.66429 10.5283 9.36172 11.3305 9.6291L13.7179 10.4249C14.4836 10.6801 15 11.3966 15 12.2037V14.1275C15 15.163 14.1605 16.0025 13.125 16.0025H11.625C5.20469 16.0025 0 10.7978 0 4.37749V2.87256Z" fill="#FFF7F7"/>
</svg>
