<svg width="20" height="21" viewBox="0 0 20 21" fill="none" xmlns="http://www.w3.org/2000/svg">
<path fill-rule="evenodd" clip-rule="evenodd" d="M20 10.2064C20 15.7293 15.5228 20.2064 10 20.2064C4.47715 20.2064 0 15.7293 0 10.2064C0 4.68357 4.47715 0.206421 10 0.206421C15.5228 0.206421 20 4.68357 20 10.2064ZM10.3583 7.58886C9.38575 7.99342 7.44179 8.83075 4.52659 10.1008C4.05321 10.2891 3.80523 10.4733 3.78266 10.6533C3.7445 10.9577 4.12561 11.0775 4.64458 11.2407C4.71517 11.2629 4.78832 11.2859 4.8633 11.3103C5.37388 11.4763 6.0607 11.6704 6.41776 11.6781C6.74163 11.6851 7.10312 11.5516 7.50222 11.2775C10.226 9.43892 11.632 8.5096 11.7202 8.48956C11.7826 8.47543 11.8688 8.45765 11.9273 8.50963C11.9858 8.56159 11.9801 8.66 11.9738 8.68642C11.9361 8.84734 10.4401 10.2382 9.66592 10.9579C9.42458 11.1823 9.25342 11.3414 9.21842 11.3778C9.14 11.4593 9.06008 11.5363 8.98333 11.6103C8.509 12.0675 8.15328 12.4104 9.003 12.9704C9.41142 13.2395 9.73817 13.462 10.0642 13.684C10.4202 13.9265 10.7752 14.1683 11.2347 14.4695C11.3517 14.5463 11.4635 14.6259 11.5724 14.7035C11.9867 14.9989 12.359 15.2643 12.8188 15.2219C13.0861 15.1973 13.3621 14.9461 13.5022 14.1968C13.8335 12.4258 14.4847 8.5885 14.6352 7.00724C14.6484 6.8687 14.6318 6.6914 14.6185 6.61357C14.6052 6.53574 14.5773 6.42485 14.4762 6.34275C14.3563 6.24554 14.1714 6.22504 14.0887 6.22649C13.7125 6.23312 13.1355 6.43377 10.3583 7.58886V7.58886Z" fill="#FFF7F7"/>
</svg>
