<svg width="21" height="21" viewBox="0 0 20 13" fill="none" xmlns="http://www.w3.org/2000/svg">
<path fill-rule="evenodd" clip-rule="evenodd" d="M19.5411 1.1631C19.6801 0.707725 19.5411 0.373108 18.8794 0.373108H16.6914C16.1351 0.373108 15.8786 0.662167 15.7395 0.980909C15.7395 0.980909 14.6268 3.64484 13.0505 5.3752C12.5406 5.87611 12.3088 6.03553 12.0306 6.03553C11.8915 6.03553 11.6828 5.87611 11.6828 5.42078V1.1631C11.6828 0.61665 11.5288 0.373108 11.0651 0.373108H7.62678C7.27912 0.373108 7.07003 0.626725 7.07003 0.867092C7.07003 1.38512 7.85813 1.50458 7.93936 2.96179V6.12661C7.93936 6.82045 7.81178 6.94628 7.53361 6.94628C6.79187 6.94628 4.98756 4.27046 3.91745 1.20862C3.70773 0.6135 3.49739 0.373108 2.93819 0.373108H0.750183C0.125037 0.373108 0 0.662167 0 0.980909C0 1.55014 0.741785 4.37344 3.45387 8.10745C5.26191 10.6575 7.80933 12.0398 10.1273 12.0398C11.5182 12.0398 11.6903 11.7328 11.6903 11.204V9.27662C11.6903 8.66262 11.822 8.54003 12.2624 8.54003C12.5869 8.54003 13.1433 8.69945 14.4413 9.92895C15.9249 11.3861 16.1695 12.0398 17.0039 12.0398H19.192C19.8171 12.0398 20.1297 11.7328 19.9494 11.1269C19.752 10.523 19.0438 9.64695 18.1039 8.60837C17.5939 8.01637 16.8289 7.37887 16.5971 7.06003C16.2726 6.65028 16.3654 6.46811 16.5971 6.10386C16.5971 6.10386 19.2629 2.41534 19.5411 1.1631V1.1631Z" fill="#FFF7F7"/>
</svg>
